<?xml version="1.0" encoding="iso-8859-1"?>
<!-- Generator: Adobe Illustrator 16.0.0, SVG Export Plug-In . SVG Version: 6.00 Build 0)  -->
<!DOCTYPE svg PUBLIC "-//W3C//DTD SVG 1.1//EN" "http://www.w3.org/Graphics/SVG/1.1/DTD/svg11.dtd">
<svg version="1.1" id="Capa_1" xmlns="http://www.w3.org/2000/svg" xmlns:xlink="http://www.w3.org/1999/xlink" x="0px" y="0px"
	 width="174.302px" height="174.302px" viewBox="0 0 174.302 174.302" style="enable-background:new 0 0 174.302 174.302;"
	 xml:space="preserve">
<g>
	<g>
		<polygon points="91.536,51.356 93.411,51.356 95.271,51.356 95.271,50.421 93.871,50.421 93.411,49.962 91.066,49.962 
			91.066,50.421 91.536,50.421 		"/>
		<path d="M117.198,108.755v-0.938h-1.863C116.382,109.255,115.037,108.573,117.198,108.755z"/>
		<polygon points="107.863,101.753 106.938,101.753 102.736,105.017 101.829,104.475 101.811,106.417 102.736,106.88 
			105.538,108.293 105.994,108.755 108.333,104.554 107.863,104.091 107.863,103.147 108.333,102.69 108.813,101.753 		"/>
		<path d="M130.734,110.618c0.779,0.013,1.517-1.339,1.863-1.863l-3.196,1.072C129.87,110.411,129.413,110.618,130.734,110.618z"/>
		<polygon points="110.213,96.145 110.213,96.626 110.213,97.089 110.658,97.089 110.658,96.626 110.658,94.751 111.151,94.3 
			111.151,93.819 110.658,93.362 110.213,93.362 109.739,94.751 109.739,95.688 110.213,95.688 		"/>
		<polygon points="102.98,91.712 101.573,93.118 103.443,92.192 		"/>
		<path d="M109.276,109.218l0.463,0.469l0.164-1.99l1.242,1.521v-0.925v-0.476l0.42-1.412l-1.839,0.012l1.863-0.535
			c1.346-0.116,0.78,0.023,1.419-0.865h-2.351c-1.29,0-1.126,0.365-1.394,1.4l-0.457,0.463L109.276,109.218z"/>
		<polygon points="110.658,89.623 110.469,88.563 109.739,90.086 110.658,90.549 		"/>
		<path d="M117.672,82.608l0.999,0.542l0.396-0.542l0.487-0.505l0.975,0.578l0.39-0.542l1.851-0.469l0.938-0.463l0.469-1.866
			l0.463-0.463V77.95l-0.463-1.403h0.919l1.997-0.648l-2.058-1.297l-0.396,0.545l-1.486,0.965l0.476,1.291l-0.384,0.548v0.935l0,0
			l-0.914,1.397h-0.938c-0.853,0.561-0.828,0.938-1.875,0.938h-0.451c-1.802,0-0.183-0.146-1.412,0.463l-0.536,0.384l-0.401,0.542
			v1.4h0.949v-1.4H117.672z"/>
		<polygon points="110.25,112.458 108.679,112.688 110.104,113.584 111.151,111.557 109.739,111.557 		"/>
		<polygon points="111.151,97.552 110.658,98.015 111.182,99.438 110.658,101.254 111.986,100.846 112.54,101.753 113.465,101.753 
			113.928,99.878 113.928,99.415 113.008,99.878 112.077,99.878 113.465,98.015 113.465,97.089 112.54,97.089 112.442,98.587 
			111.602,97.552 		"/>
		<path d="M112.125,113.066l1.9-0.847C111.772,112.202,113.125,111.521,112.125,113.066z"/>
		<polygon points="112.077,97.089 112.052,96.09 111.151,96.626 		"/>
		<path d="M121.862,106.904l-1.863,1.389l-0.919-1.876h-1.407l0.463,0.938v1.4h1.4l1.407,0.463l1.376,0.969l-0.499,1.826
			l2.387,0.476h1.413l0.718-1.511l1.139,0.591c0.969,1.443,0.92,1.815,3.271,1.863l-2.339-2.338l0.5-0.913L121.862,106.904z"/>
		<polygon points="82.669,99.415 81.731,99.415 81.731,101.29 83.211,101.741 82.669,100.353 		"/>
		<path d="M60.271,114.82l-0.46,0.938l-0.463,0.463l-0.481,0.457l-0.459,0.475h-1.404v2.326c0,1.048-0.362,1.022-0.929,1.863
			l0.917,2.351c3.821-0.907,1.857-2.326,3.754-5.133v-1.407l0.466-0.475v-0.457l-0.466-1.406h-0.475V114.82z"/>
		<polygon points="31.901,76.635 32.282,77.491 32.282,78.885 32.741,78.885 32.741,77.491 33.259,76.577 32.3,76.042 		"/>
		<polygon points="64.012,56.958 65.452,56.931 64.935,56.026 64.935,55.561 65.41,55.092 65.875,55.092 65.875,54.632 
			67.273,54.157 73.807,53.229 73.788,52.169 65.875,53.694 65.41,54.157 64.935,54.632 63.537,55.092 62.137,55.561 62.173,56.389 
					"/>
		<rect x="68.208" y="49.493" width="0.929" height="0.929"/>
		<path d="M162.325,103.835c-5.006,0-9.268,3.082-11.046,7.43l-8.72-2.729c1.169-4.725,1.845-9.633,1.845-14.711
			c0-20.253-9.84-38.197-24.94-49.466l6.132-10.342c0.962,0.423,2.033,0.667,3.153,0.667c4.409,0,7.978-3.565,7.978-7.967
			c0-4.403-3.568-7.971-7.978-7.971c-4.39,0-7.958,3.568-7.958,7.971c0,2.554,1.285,4.725,3.154,6.184l-6.083,10.257
			c-9.999-6.969-22.128-11.085-35.205-11.085c-19.966,0-37.695,9.566-48.987,24.305l-11.49-8.242c1.072-1.79,1.726-3.86,1.726-6.098
			c0-6.604-5.349-11.953-11.953-11.953C5.349,30.083,0,35.433,0,42.037s5.349,11.953,11.953,11.953c3.647,0,6.872-1.671,9.067-4.247
			l11.466,8.224c-7.249,10.12-11.566,22.478-11.566,35.854c0,5.047,0.673,9.919,1.82,14.607l-6.701,3.781
			c-1.452-1.942-3.659-3.282-6.281-3.282c-4.402,0-7.968,3.562-7.968,7.959c0,4.402,3.565,7.971,7.968,7.971
			s7.971-3.568,7.971-7.971c0-1.06-0.231-2.064-0.606-2.99l6.135-3.465c7.276,25.995,31.128,45.127,59.412,45.127
			c28.281,0,52.12-19.12,59.409-45.097l8.622,2.717c-0.189,0.84-0.305,1.704-0.305,2.605c0,6.613,5.34,11.959,11.947,11.959
			c6.606,0,11.959-5.346,11.959-11.959C174.284,109.182,168.925,103.835,162.325,103.835z M42.593,52.294h0.417
			c-0.085-0.119-0.091-0.152-0.149-0.244c10.37-9.883,24.369-15.993,39.787-15.993c16.033,0,30.556,6.576,41.028,17.159h-1.808
			v0.928h2.654c0.152,0.162,0.305,0.329,0.451,0.5c-0.231-0.006-0.427-0.013-0.768-0.019v0.929l-1.4,0.935h-1.413l-4.847,0.137
			l-1.206-1.82l-10.704-0.174l0.414-1.367l-0.907-0.511h-0.476h-3.27v-0.459h-0.926h-0.463l-0.463-1.404
			c-2.436,0-1.814-0.417-2.812,0.941h1.406v0.463l-5.593,0.929l-3.736,0.466h-0.459l-0.938,0.462l-0.935,0.475h-3.254v0.929
			l-1.863,0.042l-3.355,0.5l0.542,0.393l0.463,1.403l0.036,0.953l-0.505,0.91h-0.941l-0.362-0.38l0.91-1.09l-0.548-0.386v-2.338
			h-1.404c-1.254,0-1.958,0.88-2.326,1.863l0.463,0.469l-0.463,0.466l-1.403-0.466h-0.46l-2.807-0.469v0.935h-0.929h-2.792h-3.742
			v-0.935h-0.935c0.173,0.463,0.222,0.685,0.228,0.831c0.137,0.073,0.338,0.223,0.707,0.572h-0.475L57.95,59.29v-0.932h-0.94v1.397
			h-1.863h-0.463l-2.338-1.397l-0.922-0.466c-3.386,0-3.934-0.935-7.009-0.935h-0.466c-1.267,0-1.291,0.229-2.326,0.466l-3.27,0.935
			l-0.472,0.463l-0.91,0.512l-0.53-0.024C38.31,56.812,40.356,54.455,42.593,52.294z M80.349,58.358v0.463h-0.481L80.349,58.358z
			 M69.13,75.165l-2.311,0.573l0.454-1.977l1.845-0.523L69.13,75.165z M63.656,80.265l-1.519,0.012c-0.892,0-0.825-0.143-1.392-0.46
			l-0.161-1.884l-1.711-2.32v-1.392l4.205-0.929v0.855l-0.125,0.113c-1.522,0.386-1.129,0.048-1.242,1.738l1.367,0.554h0.459
			l0.518,0.904l-0.977,0.027L63.656,80.265z M30.421,80.282c-2.006,0-3.017,0.362-4.059,0.762c0.274-1.215,0.582-2.427,0.929-3.611
			c0.551-0.042,0.688,0.779,1.267-1.352h1.403l0.929-0.463l0.935-0.466h1.404l1.863,1.863l1.403,0.941l0.469,0.469l-0.469,0.922
			h-1.403c0.119,0.155,1.873,2.201,1.873,0.475l0.928-0.475c0.356-0.368,0.505-0.566,0.579-0.7c0.131-0.006,0.356-0.049,0.819-0.222
			l-0.922-0.935l-0.944-0.469H36.97l-2.588-2.575l1.178-0.226l1.863,1.397l1.41,0.463l0.387,0.554l0.548,0.38v0.941l1.604,2.183
			l1.203-0.286l-0.542-1.879l0.996-0.484h0.457h0.928l0.469,1.4l0.459,0.938l0.463,0.459l1.403,0.475l0.472-0.475h0.469l0.566,1.839
			l0.831,0.03v-1.4h0.472h0.917l-0.797,3.3l-1.066-0.036l-1.863,0.463h-1.866l-0.459-0.463c-2.57-0.055-2.39-0.932-3.736-0.932
			c-0.761,0-1.084,1.284-1.392,1.869l-2.344-0.475l-1.001-1.34l-0.862-0.055H35.08c-1.939,0-0.996-1.011-1.389-1.87v-0.931h-3.27
			V80.282z M32.741,64.886h0.469l0.475,0.469l0.454,0.463h0.463v0.472l-0.917,1.397c6.135,0,2.6-2.001,5.587-2.801v-0.935
			l-1.035-0.024l0.566-1.833l1.857-0.935c0.85-0.423,1.51-1.005,2.338,0l-0.472,0.459l-1.367,0.558l-0.024,1.774h0.929l1.053,2.271
			l-1.97-0.457l-0.929,2.39h-2.351h-0.475l-1.392,0.459H35.53l-1.86-0.459h-0.472v-0.932l0.472-0.929v-0.472l-0.904,0.024
			l-0.502,0.911v0.475v0.466v0.923l-1.522,0.021c0.494-1.004,0.972-2.009,1.522-2.984C32.437,65.531,32.443,65.3,32.741,64.886z
			 M50.019,74.221v-0.466h0.457l2.32-0.575l-0.557,1.945l1.973,0.493l0.84,1.035l-0.368,0.837H48.15l-2.807,0.472l0.387-0.548
			l-0.387-1.328l0.944-0.463v-0.935l0.46-0.469l0.935-0.46l0.469-0.469l0.922,0.469l0.475,0.929l0.929,0.463v-0.932H50.019z
			 M50.47,61.166v-0.935h0.006h3.267v0.459h-1.403c-0.892,0-0.828,0.144-1.41,0.476H50.47z M46.287,64.427l-2.338-0.469h2.338
			V64.427z M49.542,86.348h0.472l0.917,0.462l0.487,0.47l0.463,0.469c0.734,1.406,0.865,1.96,1.607,3.531
			c0.405,0.865,1.87,1.937,2.588,3.015v1.851l-0.387,0.548l-1.004-1.017l-2.606-2.94l-0.198-1.724l-2.338-4.202V86.348z
			 M82.648,151.587c-28.987,0-52.991-21.495-57.077-49.371h0.18l0.919-0.463l2.841-0.012l0.462,1.473l0.904-0.523h1.404l0.459,0.932
			v1.406v0.932v0.457l-0.542,0.384l2.402,2.417c0.548,1.133,0.941,2.047,0.941,3.739v0.926c0,1.619-0.941,0.712-0.941,2.338v1.389
			c0,1.766,1.151,3.117,1.875,4.214c0,1.912,2.433,7.928,3.735,7.928h2.792c2.533,0,6.013-3.502,6.062-6.071
			c0.6-0.316,1.863-0.651,1.863-1.406c0-1.248-0.21-1.291-0.46-2.326l3.678-2.886l0.058-4.117l-0.926-2.338v-1.4l0.545-0.39
			l0.387-0.548l4.202-4.201l1.863-2.339v-0.463l0.475-0.463l0.929-2.801h-0.46l-3.264,0.463H56.55v-1.4h0.929l0.472-0.463
			l3.261-0.926l0.862-0.061l1.005-1.34l2.332-0.926l0.536-0.39l0.393-0.548v-0.45c0.429-0.293,1.409-0.768,1.409-1.413
			c0-0.268-0.642-0.962-0.928-1.4h-0.944l-0.561-1.09l-1.778,1.09h-1.4v-0.463v-1.4l-1.392-0.469l-0.935-0.469v-1.395l1.227,0.164
			l2.521,2.106l2.317,0.524l0.469,0.475h6.534v0.92c0.98,0.858,1.592,1.698,2.415,2.874l0.393-0.536l0.46-0.456l0.943,2.795
			l0.923,2.788l0.03,0.907l0.898,0.5l0.667,2.562l2.125-2.094l0.101-3.154l2.713-1.967c1.827-1.23,1.726-0.768,2.801-2.813h1.401
			l0.812-0.378l1.982,2.241l1.415,2.339l0.865,0.023l0.523,0.914v0.456l0.463,0.463v0.932c-0.146,1.839-0.975,1.985,0,2.813
			l0.475,0.45l0.926,1.876v0.463l0.469,1.4l-3.945-2.68l3.477,5.48l3.739,3.264l0.462,0.463l4.641,1.06l0.499-0.128
			c1.76,0,0.889,0.311,2.795,0.463v-0.932l-4.189-0.926l-4.201-0.475v-2.801l-1.882-0.926v-0.457l-0.457-0.475l-0.535-0.536
			l0.456-0.177l0.986,0.256l-0.511-2.74l-1.334-0.986h-0.469l-0.475-0.475v-0.938l-0.457-0.463l0.523-2.862l3.203,2.411l2.338-0.475
			l0.938-0.463v-0.926c0-1.948,0.024-0.98-0.463-1.4v-0.463c-0.396-0.597-1.876-2.033-1.876-2.338c0-1.254,0.676-1.376,1.432-1.949
			l0.992,0.621l0.384-0.535h0.932l0.895-0.024l0.512-0.913h1.876l3.727-4.202v-0.925l-0.451-1.413l-1.035-1.961l1.035-0.828
			l1.395-0.935h-0.938h-0.92l-1.339-0.779l1.303-1.099l0.919-0.472l0.037,1.471l0.907-0.53h0.475l0.853,0.024l0.536,1.373h0.938
			v0.459v1.4h0.463c0.7-0.17,1.4-0.097,1.4-0.925c0-1.124-0.768-1.373-1.4-2.333c2.283-0.618,0.932-1.105,3.258-2.338l1.516,0.113
			l4.08-4.305V70.5l0.926-0.475v3.735h0.938v-1.866l0.463-0.472l-0.463-2.332l-0.384-0.381l-1.022,0.841v-0.466l-1.011-1.018
			l-0.396,0.542l-2.338-0.459c1.937-2.633,6.333-3.635,10.741-3.736l0.475,0.466h0.901c0.688,1.182,1.328,2.384,1.925,3.611
			c0.049,0.91,0.268,1.105,0.693,2.234l0.256-0.262c3.179,7.143,4.981,15.037,4.981,23.355c0,10.887-3.081,21.043-8.343,29.745
			l-4.348-4.798l-0.255-1.17l-0.457-1.389l-0.932-0.462l-0.463-0.938v-0.463l-0.913-0.535l-0.024,1.011v1.863l-0.451,0.926
			l-3.264-0.463l-0.469-0.463l0.481-2.339h-1.413h-1.412l-0.926,0.463l-0.476,0.463l-0.535,0.908l-1.315-0.433
			c-3.446,0.901-2.728,4.226-7.94,4.664l-1.851,0.944l-0.013,0.906c0,1.023-0.354,1.407,0.463,1.407
			c0.073,3.014,0.073,6.479,2.789,6.527l0.475-0.456h0.463h2.326l1.875-1.407h1.413l0.926-0.456l4.189,1.875l0.39,0.535l0.986-0.572
			l-0.414,1.432l1.839-0.475l0.913,1.881l1.425-0.018h0.25C114.811,144.2,99.594,151.587,82.648,151.587z"/>
	</g>
</g>
<g>
</g>
<g>
</g>
<g>
</g>
<g>
</g>
<g>
</g>
<g>
</g>
<g>
</g>
<g>
</g>
<g>
</g>
<g>
</g>
<g>
</g>
<g>
</g>
<g>
</g>
<g>
</g>
<g>
</g>
</svg>
